<svg xmlns="http://www.w3.org/2000/svg" viewBox="0 0 240 90"><rect width="240" height="90" rx="14" fill="#fff"/><g transform="translate(24 24)"><path d="M0 21C0 9.4 9.4 0 21 0h26v12H22c-5.5 0-10 4.5-10 10s4.5 10 10 10h25v12H21C9.4 44 0 34.6 0 23z" fill="#22A7D8"/><path d="M35 0h21c11.6 0 21 9.4 21 21v2c0 11.6-9.4 21-21 21H35V32h20c5.5 0 10-4.5 10-10s-4.5-10-10-10H35z" fill="#1F5FBF"/></g><text x="118" y="56" font-family="Arial,Helvetica,sans-serif" font-size="30" font-weight="700" fill="#17384D">Daftra</text></svg>